<mxfile host="app.diagrams.net" modified="2022-09-15T08:30:11.633Z" agent="5.0 (Macintosh; Intel Mac OS X 10_15_7) AppleWebKit/537.36 (KHTML, like Gecko) Chrome/105.0.0.0 Safari/537.36" etag="N0d8O91iC7xOHkQ1-Ysw" version="20.3.0" type="github">
  <diagram id="HESNaqqd70zqESvNT9nq" name="Page-1">
    <mxGraphModel dx="1110" dy="588" grid="1" gridSize="10" guides="1" tooltips="1" connect="1" arrows="1" fold="1" page="1" pageScale="1" pageWidth="850" pageHeight="1100" math="0" shadow="0">
      <root>
        <mxCell id="0" />
        <mxCell id="1" parent="0" />
        <mxCell id="CVtmTGRHekcqctoALHrh-24" style="edgeStyle=orthogonalEdgeStyle;rounded=0;orthogonalLoop=1;jettySize=auto;html=1;" edge="1" parent="1" source="CVtmTGRHekcqctoALHrh-1">
          <mxGeometry relative="1" as="geometry">
            <mxPoint x="300" y="145" as="targetPoint" />
            <Array as="points">
              <mxPoint x="210" y="145" />
              <mxPoint x="210" y="145" />
            </Array>
          </mxGeometry>
        </mxCell>
        <mxCell id="CVtmTGRHekcqctoALHrh-1" value="Mobile App (&lt;span style=&quot;text-align: center;&quot;&gt;Respondent&lt;/span&gt;&lt;br&gt;)&lt;br&gt;1. form&lt;br&gt;2. authenication&lt;br&gt;3. lib db&lt;br&gt;4. data processer" style="whiteSpace=wrap;html=1;aspect=fixed;align=left;" vertex="1" parent="1">
          <mxGeometry x="50" y="105" width="130" height="130" as="geometry" />
        </mxCell>
        <mxCell id="CVtmTGRHekcqctoALHrh-22" style="edgeStyle=orthogonalEdgeStyle;rounded=0;orthogonalLoop=1;jettySize=auto;html=1;entryX=0;entryY=0.5;entryDx=0;entryDy=0;" edge="1" parent="1" source="CVtmTGRHekcqctoALHrh-2" target="CVtmTGRHekcqctoALHrh-21">
          <mxGeometry relative="1" as="geometry" />
        </mxCell>
        <mxCell id="CVtmTGRHekcqctoALHrh-2" value="" style="rounded=0;whiteSpace=wrap;html=1;" vertex="1" parent="1">
          <mxGeometry x="310" y="20" width="250" height="460" as="geometry" />
        </mxCell>
        <mxCell id="CVtmTGRHekcqctoALHrh-16" style="edgeStyle=orthogonalEdgeStyle;rounded=0;orthogonalLoop=1;jettySize=auto;html=1;" edge="1" parent="1" source="CVtmTGRHekcqctoALHrh-3">
          <mxGeometry relative="1" as="geometry">
            <mxPoint x="305" y="325" as="targetPoint" />
            <Array as="points">
              <mxPoint x="210" y="325" />
              <mxPoint x="210" y="325" />
            </Array>
          </mxGeometry>
        </mxCell>
        <mxCell id="CVtmTGRHekcqctoALHrh-3" value="Help Desk" style="whiteSpace=wrap;html=1;aspect=fixed;" vertex="1" parent="1">
          <mxGeometry x="50" y="280" width="130" height="130" as="geometry" />
        </mxCell>
        <mxCell id="CVtmTGRHekcqctoALHrh-5" value="API Gateway" style="shape=process;whiteSpace=wrap;html=1;backgroundOutline=1;" vertex="1" parent="1">
          <mxGeometry x="365" y="105" width="120" height="60" as="geometry" />
        </mxCell>
        <mxCell id="CVtmTGRHekcqctoALHrh-6" value="Auth(Node)" style="shape=process;whiteSpace=wrap;html=1;backgroundOutline=1;" vertex="1" parent="1">
          <mxGeometry x="365" y="180" width="120" height="60" as="geometry" />
        </mxCell>
        <mxCell id="CVtmTGRHekcqctoALHrh-7" value="Form Processer (Node)" style="shape=process;whiteSpace=wrap;html=1;backgroundOutline=1;" vertex="1" parent="1">
          <mxGeometry x="365" y="260" width="120" height="60" as="geometry" />
        </mxCell>
        <mxCell id="CVtmTGRHekcqctoALHrh-8" value="Data Management(Node)" style="shape=process;whiteSpace=wrap;html=1;backgroundOutline=1;" vertex="1" parent="1">
          <mxGeometry x="365" y="330" width="120" height="60" as="geometry" />
        </mxCell>
        <mxCell id="CVtmTGRHekcqctoALHrh-10" value="API Connect(gateway)&lt;br&gt;App ID (LDAP/Auth)&lt;br&gt;Cloudant(DB)" style="text;html=1;strokeColor=none;fillColor=none;align=center;verticalAlign=middle;whiteSpace=wrap;rounded=0;" vertex="1" parent="1">
          <mxGeometry x="330" y="410" width="170" height="65" as="geometry" />
        </mxCell>
        <mxCell id="CVtmTGRHekcqctoALHrh-11" value="HD Support(Node)" style="shape=process;whiteSpace=wrap;html=1;backgroundOutline=1;" vertex="1" parent="1">
          <mxGeometry x="365" y="30" width="120" height="60" as="geometry" />
        </mxCell>
        <mxCell id="CVtmTGRHekcqctoALHrh-15" value="Form data&lt;br&gt;Request" style="text;html=1;strokeColor=none;fillColor=none;align=center;verticalAlign=middle;whiteSpace=wrap;rounded=0;" vertex="1" parent="1">
          <mxGeometry x="210" y="105" width="60" height="30" as="geometry" />
        </mxCell>
        <mxCell id="CVtmTGRHekcqctoALHrh-18" value="form data" style="text;html=1;strokeColor=none;fillColor=none;align=center;verticalAlign=middle;whiteSpace=wrap;rounded=0;" vertex="1" parent="1">
          <mxGeometry x="590" y="210" width="60" height="30" as="geometry" />
        </mxCell>
        <mxCell id="CVtmTGRHekcqctoALHrh-19" value="Operation Data" style="text;html=1;strokeColor=none;fillColor=none;align=center;verticalAlign=middle;whiteSpace=wrap;rounded=0;" vertex="1" parent="1">
          <mxGeometry x="200" y="290" width="80" height="30" as="geometry" />
        </mxCell>
        <mxCell id="CVtmTGRHekcqctoALHrh-21" value="Dos" style="whiteSpace=wrap;html=1;aspect=fixed;" vertex="1" parent="1">
          <mxGeometry x="680" y="210" width="80" height="80" as="geometry" />
        </mxCell>
        <mxCell id="CVtmTGRHekcqctoALHrh-23" value="Form data" style="text;html=1;strokeColor=none;fillColor=none;align=center;verticalAlign=middle;whiteSpace=wrap;rounded=0;" vertex="1" parent="1">
          <mxGeometry x="210" y="320" width="60" height="30" as="geometry" />
        </mxCell>
        <mxCell id="CVtmTGRHekcqctoALHrh-25" value="" style="endArrow=classic;html=1;rounded=0;entryX=1.015;entryY=0.688;entryDx=0;entryDy=0;entryPerimeter=0;exitX=-0.016;exitY=0.376;exitDx=0;exitDy=0;exitPerimeter=0;" edge="1" parent="1" source="CVtmTGRHekcqctoALHrh-2" target="CVtmTGRHekcqctoALHrh-1">
          <mxGeometry width="50" height="50" relative="1" as="geometry">
            <mxPoint x="380" y="220" as="sourcePoint" />
            <mxPoint x="430" y="170" as="targetPoint" />
            <Array as="points" />
          </mxGeometry>
        </mxCell>
        <mxCell id="CVtmTGRHekcqctoALHrh-26" value="Response" style="text;html=1;strokeColor=none;fillColor=none;align=center;verticalAlign=middle;whiteSpace=wrap;rounded=0;" vertex="1" parent="1">
          <mxGeometry x="210" y="195" width="60" height="30" as="geometry" />
        </mxCell>
        <mxCell id="CVtmTGRHekcqctoALHrh-28" value="" style="endArrow=classic;html=1;rounded=0;exitX=-0.012;exitY=0.775;exitDx=0;exitDy=0;exitPerimeter=0;entryX=1;entryY=0.75;entryDx=0;entryDy=0;" edge="1" parent="1" source="CVtmTGRHekcqctoALHrh-2" target="CVtmTGRHekcqctoALHrh-3">
          <mxGeometry width="50" height="50" relative="1" as="geometry">
            <mxPoint x="380" y="220" as="sourcePoint" />
            <mxPoint x="430" y="170" as="targetPoint" />
          </mxGeometry>
        </mxCell>
        <mxCell id="CVtmTGRHekcqctoALHrh-29" value="Response" style="text;html=1;strokeColor=none;fillColor=none;align=center;verticalAlign=middle;whiteSpace=wrap;rounded=0;" vertex="1" parent="1">
          <mxGeometry x="210" y="380" width="60" height="30" as="geometry" />
        </mxCell>
        <mxCell id="CVtmTGRHekcqctoALHrh-30" value="Actor" style="shape=umlActor;verticalLabelPosition=bottom;verticalAlign=top;html=1;outlineConnect=0;" vertex="1" parent="1">
          <mxGeometry x="110" y="650" width="30" height="60" as="geometry" />
        </mxCell>
        <mxCell id="CVtmTGRHekcqctoALHrh-31" value="API Gateway" style="ellipse;whiteSpace=wrap;html=1;" vertex="1" parent="1">
          <mxGeometry x="270" y="640" width="120" height="80" as="geometry" />
        </mxCell>
        <mxCell id="CVtmTGRHekcqctoALHrh-59" style="edgeStyle=orthogonalEdgeStyle;rounded=0;orthogonalLoop=1;jettySize=auto;html=1;exitX=1;exitY=0.5;exitDx=0;exitDy=0;entryX=0;entryY=0.5;entryDx=0;entryDy=0;" edge="1" parent="1" source="CVtmTGRHekcqctoALHrh-32" target="CVtmTGRHekcqctoALHrh-57">
          <mxGeometry relative="1" as="geometry" />
        </mxCell>
        <mxCell id="CVtmTGRHekcqctoALHrh-32" value="Auth Service" style="shape=process;whiteSpace=wrap;html=1;backgroundOutline=1;" vertex="1" parent="1">
          <mxGeometry x="520" y="650" width="120" height="60" as="geometry" />
        </mxCell>
        <mxCell id="CVtmTGRHekcqctoALHrh-33" value="" style="endArrow=classic;html=1;rounded=0;entryX=-0.025;entryY=0.381;entryDx=0;entryDy=0;entryPerimeter=0;" edge="1" parent="1" target="CVtmTGRHekcqctoALHrh-31">
          <mxGeometry width="50" height="50" relative="1" as="geometry">
            <mxPoint x="150" y="670" as="sourcePoint" />
            <mxPoint x="430" y="610" as="targetPoint" />
          </mxGeometry>
        </mxCell>
        <mxCell id="CVtmTGRHekcqctoALHrh-34" value="" style="endArrow=classic;html=1;rounded=0;entryX=0;entryY=0.5;entryDx=0;entryDy=0;exitX=1;exitY=0.5;exitDx=0;exitDy=0;" edge="1" parent="1" source="CVtmTGRHekcqctoALHrh-31" target="CVtmTGRHekcqctoALHrh-32">
          <mxGeometry width="50" height="50" relative="1" as="geometry">
            <mxPoint x="380" y="660" as="sourcePoint" />
            <mxPoint x="430" y="610" as="targetPoint" />
          </mxGeometry>
        </mxCell>
        <mxCell id="CVtmTGRHekcqctoALHrh-36" value="valid: 200, invalid: 401/403" style="text;html=1;strokeColor=none;fillColor=none;align=center;verticalAlign=middle;whiteSpace=wrap;rounded=0;" vertex="1" parent="1">
          <mxGeometry x="400" y="700" width="100" height="30" as="geometry" />
        </mxCell>
        <mxCell id="CVtmTGRHekcqctoALHrh-37" value="App ID" style="shape=process;whiteSpace=wrap;html=1;backgroundOutline=1;" vertex="1" parent="1">
          <mxGeometry x="520" y="540" width="120" height="60" as="geometry" />
        </mxCell>
        <mxCell id="CVtmTGRHekcqctoALHrh-38" value="" style="endArrow=classic;startArrow=classic;html=1;rounded=0;entryX=0.5;entryY=1;entryDx=0;entryDy=0;exitX=0.5;exitY=0;exitDx=0;exitDy=0;" edge="1" parent="1" source="CVtmTGRHekcqctoALHrh-32" target="CVtmTGRHekcqctoALHrh-37">
          <mxGeometry width="50" height="50" relative="1" as="geometry">
            <mxPoint x="380" y="710" as="sourcePoint" />
            <mxPoint x="430" y="660" as="targetPoint" />
          </mxGeometry>
        </mxCell>
        <mxCell id="CVtmTGRHekcqctoALHrh-39" value="" style="endArrow=classic;html=1;rounded=0;exitX=0;exitY=0.75;exitDx=0;exitDy=0;entryX=0.983;entryY=0.675;entryDx=0;entryDy=0;entryPerimeter=0;" edge="1" parent="1" source="CVtmTGRHekcqctoALHrh-32" target="CVtmTGRHekcqctoALHrh-31">
          <mxGeometry width="50" height="50" relative="1" as="geometry">
            <mxPoint x="380" y="580" as="sourcePoint" />
            <mxPoint x="430" y="530" as="targetPoint" />
          </mxGeometry>
        </mxCell>
        <mxCell id="CVtmTGRHekcqctoALHrh-41" value="" style="endArrow=classic;html=1;rounded=0;" edge="1" parent="1" source="CVtmTGRHekcqctoALHrh-31" target="CVtmTGRHekcqctoALHrh-30">
          <mxGeometry width="50" height="50" relative="1" as="geometry">
            <mxPoint x="380" y="560" as="sourcePoint" />
            <mxPoint x="430" y="510" as="targetPoint" />
          </mxGeometry>
        </mxCell>
        <mxCell id="CVtmTGRHekcqctoALHrh-42" value="Form Processer" style="shape=process;whiteSpace=wrap;html=1;backgroundOutline=1;" vertex="1" parent="1">
          <mxGeometry x="520" y="790" width="120" height="60" as="geometry" />
        </mxCell>
        <mxCell id="CVtmTGRHekcqctoALHrh-43" value="" style="endArrow=classic;html=1;rounded=0;exitX=0.5;exitY=1;exitDx=0;exitDy=0;entryX=0.5;entryY=0;entryDx=0;entryDy=0;" edge="1" parent="1" source="CVtmTGRHekcqctoALHrh-32" target="CVtmTGRHekcqctoALHrh-42">
          <mxGeometry width="50" height="50" relative="1" as="geometry">
            <mxPoint x="380" y="650" as="sourcePoint" />
            <mxPoint x="430" y="600" as="targetPoint" />
          </mxGeometry>
        </mxCell>
        <mxCell id="CVtmTGRHekcqctoALHrh-44" value="login success" style="text;html=1;align=center;verticalAlign=middle;resizable=0;points=[];autosize=1;strokeColor=none;fillColor=none;" vertex="1" parent="1">
          <mxGeometry x="570" y="740" width="100" height="30" as="geometry" />
        </mxCell>
        <mxCell id="CVtmTGRHekcqctoALHrh-45" value="data management" style="shape=process;whiteSpace=wrap;html=1;backgroundOutline=1;" vertex="1" parent="1">
          <mxGeometry x="520" y="900" width="120" height="60" as="geometry" />
        </mxCell>
        <mxCell id="CVtmTGRHekcqctoALHrh-46" value="credential verify" style="text;html=1;strokeColor=none;fillColor=none;align=center;verticalAlign=middle;whiteSpace=wrap;rounded=0;" vertex="1" parent="1">
          <mxGeometry x="590" y="610" width="60" height="30" as="geometry" />
        </mxCell>
        <mxCell id="CVtmTGRHekcqctoALHrh-47" value="" style="endArrow=classic;html=1;rounded=0;exitX=0.5;exitY=1;exitDx=0;exitDy=0;entryX=0.5;entryY=0;entryDx=0;entryDy=0;" edge="1" parent="1" source="CVtmTGRHekcqctoALHrh-42" target="CVtmTGRHekcqctoALHrh-45">
          <mxGeometry width="50" height="50" relative="1" as="geometry">
            <mxPoint x="380" y="770" as="sourcePoint" />
            <mxPoint x="430" y="720" as="targetPoint" />
          </mxGeometry>
        </mxCell>
        <mxCell id="CVtmTGRHekcqctoALHrh-48" value="valid form" style="text;html=1;align=center;verticalAlign=middle;resizable=0;points=[];autosize=1;strokeColor=none;fillColor=none;" vertex="1" parent="1">
          <mxGeometry x="570" y="860" width="80" height="30" as="geometry" />
        </mxCell>
        <mxCell id="CVtmTGRHekcqctoALHrh-51" value="Dos" style="ellipse;whiteSpace=wrap;html=1;" vertex="1" parent="1">
          <mxGeometry x="270" y="890" width="120" height="80" as="geometry" />
        </mxCell>
        <mxCell id="CVtmTGRHekcqctoALHrh-53" value="request" style="text;html=1;align=center;verticalAlign=middle;resizable=0;points=[];autosize=1;strokeColor=none;fillColor=none;" vertex="1" parent="1">
          <mxGeometry x="180" y="635" width="60" height="30" as="geometry" />
        </mxCell>
        <mxCell id="CVtmTGRHekcqctoALHrh-54" value="response" style="text;html=1;strokeColor=none;fillColor=none;align=center;verticalAlign=middle;whiteSpace=wrap;rounded=0;" vertex="1" parent="1">
          <mxGeometry x="180" y="690" width="60" height="30" as="geometry" />
        </mxCell>
        <mxCell id="CVtmTGRHekcqctoALHrh-55" value="" style="endArrow=classic;html=1;rounded=0;entryX=0.5;entryY=1;entryDx=0;entryDy=0;" edge="1" parent="1" target="CVtmTGRHekcqctoALHrh-31">
          <mxGeometry width="50" height="50" relative="1" as="geometry">
            <mxPoint x="510" y="820" as="sourcePoint" />
            <mxPoint x="430" y="720" as="targetPoint" />
          </mxGeometry>
        </mxCell>
        <mxCell id="CVtmTGRHekcqctoALHrh-56" value="invalid form: 400" style="text;html=1;align=center;verticalAlign=middle;resizable=0;points=[];autosize=1;strokeColor=none;fillColor=none;" vertex="1" parent="1">
          <mxGeometry x="345" y="780" width="110" height="30" as="geometry" />
        </mxCell>
        <mxCell id="CVtmTGRHekcqctoALHrh-57" value="HD Support" style="shape=process;whiteSpace=wrap;html=1;backgroundOutline=1;" vertex="1" parent="1">
          <mxGeometry x="710" y="650" width="120" height="60" as="geometry" />
        </mxCell>
        <mxCell id="CVtmTGRHekcqctoALHrh-60" value="operation" style="text;html=1;align=center;verticalAlign=middle;resizable=0;points=[];autosize=1;strokeColor=none;fillColor=none;" vertex="1" parent="1">
          <mxGeometry x="640" y="650" width="70" height="30" as="geometry" />
        </mxCell>
        <mxCell id="CVtmTGRHekcqctoALHrh-64" value="" style="endArrow=classic;startArrow=classic;html=1;rounded=0;exitX=1;exitY=0.5;exitDx=0;exitDy=0;" edge="1" parent="1" source="CVtmTGRHekcqctoALHrh-45">
          <mxGeometry width="50" height="50" relative="1" as="geometry">
            <mxPoint x="730" y="760" as="sourcePoint" />
            <mxPoint x="780" y="710" as="targetPoint" />
          </mxGeometry>
        </mxCell>
        <mxCell id="CVtmTGRHekcqctoALHrh-65" value="" style="endArrow=classic;startArrow=classic;html=1;rounded=0;entryX=0;entryY=0.5;entryDx=0;entryDy=0;exitX=1;exitY=0.5;exitDx=0;exitDy=0;" edge="1" parent="1" source="CVtmTGRHekcqctoALHrh-51" target="CVtmTGRHekcqctoALHrh-45">
          <mxGeometry width="50" height="50" relative="1" as="geometry">
            <mxPoint x="390" y="970" as="sourcePoint" />
            <mxPoint x="440" y="920" as="targetPoint" />
          </mxGeometry>
        </mxCell>
        <mxCell id="CVtmTGRHekcqctoALHrh-66" value="Cloudant" style="shape=cylinder3;whiteSpace=wrap;html=1;boundedLbl=1;backgroundOutline=1;size=15;" vertex="1" parent="1">
          <mxGeometry x="550" y="1010" width="60" height="80" as="geometry" />
        </mxCell>
        <mxCell id="CVtmTGRHekcqctoALHrh-67" value="" style="endArrow=classic;startArrow=classic;html=1;rounded=0;entryX=0.5;entryY=1;entryDx=0;entryDy=0;" edge="1" parent="1" target="CVtmTGRHekcqctoALHrh-45">
          <mxGeometry width="50" height="50" relative="1" as="geometry">
            <mxPoint x="580" y="1010" as="sourcePoint" />
            <mxPoint x="490" y="890" as="targetPoint" />
          </mxGeometry>
        </mxCell>
        <mxCell id="CVtmTGRHekcqctoALHrh-68" value="recovery&lt;br&gt;backup&lt;br&gt;patch" style="text;html=1;strokeColor=none;fillColor=none;align=center;verticalAlign=middle;whiteSpace=wrap;rounded=0;" vertex="1" parent="1">
          <mxGeometry x="730" y="800" width="60" height="50" as="geometry" />
        </mxCell>
      </root>
    </mxGraphModel>
  </diagram>
</mxfile>
